<svg width="65" height="65" viewBox="0 0 65 65" fill="none" xmlns="http://www.w3.org/2000/svg">
<rect x="0.666992" y="0.0625" width="64" height="64" rx="4" fill="url(#paint0_linear_18926_5670)"/>
<mask id="mask0_18926_5670" style="mask-type:luminance" maskUnits="userSpaceOnUse" x="16" y="18" width="32" height="28">
<path fill-rule="evenodd" clip-rule="evenodd" d="M20.0003 18.729C21.8413 18.729 23.3337 20.2214 23.3337 22.0623C23.3337 23.9033 21.8413 25.3957 20.0003 25.3957C18.1594 25.3957 16.667 23.9033 16.667 22.0623C16.667 20.2214 18.1594 18.729 20.0003 18.729ZM48.0003 34.729C48.0003 40.62 43.2247 45.3957 37.8416 45.3957C31.4426 45.3957 26.667 40.62 26.667 34.729C26.667 28.838 31.4426 24.0623 37.8416 24.0623C43.2247 24.0623 48.0003 28.838 48.0003 34.729ZM22.667 31.3957C22.667 29.9229 21.4731 28.729 20.0003 28.729C18.5276 28.729 17.3337 29.9229 17.3337 31.3957V42.729C17.3337 44.2018 18.5276 45.3957 20.0003 45.3957C21.4731 45.3957 22.667 44.2018 22.667 42.729V31.3957ZM39.954 33.6095H41.3741V32.2122H39.9642V30.5224H38.4216V36.1442C38.4216 37.0324 38.5442 37.639 38.7996 37.964C39.0448 38.2998 39.5147 38.4622 40.2094 38.4622C40.4751 38.4622 40.8735 38.3973 41.3843 38.2781L41.3128 36.9783L40.4342 36.9999C40.2809 36.9999 40.1686 36.9674 40.0971 36.8916C40.0255 36.8158 39.9847 36.7291 39.9745 36.6316C39.9642 36.5233 39.954 36.3608 39.954 36.1117V33.6095ZM35.3056 32.223V38.3214H36.8483V32.223H35.3056ZM32.9901 32.0713C33.2598 32.0713 33.4879 32.1621 33.6642 32.3438C33.8405 32.5254 33.9235 32.7474 33.9235 33.0198C33.9235 33.2922 33.8405 33.5041 33.6642 33.6857C33.4983 33.8472 33.2805 33.938 33.0005 33.938C32.7309 33.938 32.5027 33.8472 32.3264 33.6656C32.1501 33.4839 32.0568 33.262 32.0568 32.9996C32.0568 32.7373 32.1501 32.5153 32.3161 32.3337C32.4924 32.1521 32.7205 32.0713 32.9901 32.0713Z" fill="white"/>
</mask>
<g mask="url(#mask0_18926_5670)">
<rect x="-34" y="-34.6045" width="133.333" height="133.333" fill="white"/>
</g>
<defs>
<linearGradient id="paint0_linear_18926_5670" x1="32.667" y1="0.0625" x2="32.667" y2="64.0625" gradientUnits="userSpaceOnUse">
<stop stop-color="#1D51DF"/>
<stop offset="1" stop-color="#1723D5"/>
</linearGradient>
</defs>
</svg>
