<svg width="64" height="65" viewBox="0 0 64 65" fill="none" xmlns="http://www.w3.org/2000/svg">
<rect y="0.0625" width="64" height="64" rx="4" fill="#0066CC"/>
<path d="M45.3337 32.0627L40.0003 37.396L38.1203 35.516L40.227 33.396H33.2537C32.8003 37.5293 30.2403 41.0227 26.667 42.796C26.6137 44.9827 24.8537 46.7293 22.667 46.7293C20.4537 46.7293 18.667 44.9427 18.667 42.7293C18.667 40.516 20.4537 38.7293 22.667 38.7293C23.9337 38.7293 25.0403 39.3293 25.7737 40.2493C28.307 38.876 30.1203 36.3693 30.547 33.396H26.4137C25.867 34.9427 24.4003 36.0627 22.667 36.0627C20.4537 36.0627 18.667 34.276 18.667 32.0627C18.667 29.8493 20.4537 28.0627 22.667 28.0627C24.4003 28.0627 25.867 29.1827 26.427 30.7293H30.5603C30.1337 27.756 28.307 25.2627 25.7737 23.876C25.0403 24.796 23.9337 25.396 22.667 25.396C20.4537 25.396 18.667 23.6093 18.667 21.396C18.667 19.1827 20.4537 17.396 22.667 17.396C24.8537 17.396 26.6137 19.1427 26.6537 21.3293C30.227 23.1027 32.787 26.596 33.2403 30.7293H40.2137L38.107 28.6093L40.0003 26.7293L45.3337 32.0627Z" fill="white"/>
</svg>
